<svg xmlns="http://www.w3.org/2000/svg" xmlns:xlink="http://www.w3.org/1999/xlink" width="500" zoomAndPan="magnify" viewBox="0 0 375 374.999991" height="500" preserveAspectRatio="xMidYMid meet" version="1.0"><defs><g/></defs><g fill="#4285f4" fill-opacity="1"><g transform="translate(36.965752, 213.53606)"><g><path d="M 34.96875 -33.359375 L 64.765625 -33.359375 C 64.941406 -32.679688 65.082031 -31.859375 65.1875 -30.890625 C 65.300781 -29.929688 65.359375 -28.972656 65.359375 -28.015625 C 65.359375 -24.109375 64.765625 -20.425781 63.578125 -16.96875 C 62.390625 -13.519531 60.523438 -10.4375 57.984375 -7.71875 C 55.265625 -4.832031 52.007812 -2.597656 48.21875 -1.015625 C 44.425781 0.566406 40.097656 1.359375 35.234375 1.359375 C 30.816406 1.359375 26.65625 0.566406 22.75 -1.015625 C 18.84375 -2.597656 15.445312 -4.804688 12.5625 -7.640625 C 9.675781 -10.472656 7.382812 -13.828125 5.6875 -17.703125 C 3.988281 -21.578125 3.140625 -25.804688 3.140625 -30.390625 C 3.140625 -34.972656 3.988281 -39.203125 5.6875 -43.078125 C 7.382812 -46.953125 9.675781 -50.304688 12.5625 -53.140625 C 15.445312 -55.972656 18.84375 -58.179688 22.75 -59.765625 C 26.65625 -61.347656 30.816406 -62.140625 35.234375 -62.140625 C 40.148438 -62.140625 44.546875 -61.289062 48.421875 -59.59375 C 52.304688 -57.894531 55.632812 -55.546875 58.40625 -52.546875 L 50.515625 -44.828125 C 48.523438 -46.921875 46.3125 -48.519531 43.875 -49.625 C 41.445312 -50.726562 38.535156 -51.28125 35.140625 -51.28125 C 32.367188 -51.28125 29.738281 -50.78125 27.25 -49.78125 C 24.757812 -48.789062 22.578125 -47.390625 20.703125 -45.578125 C 18.835938 -43.773438 17.351562 -41.582031 16.25 -39 C 15.144531 -36.425781 14.59375 -33.554688 14.59375 -30.390625 C 14.59375 -27.222656 15.144531 -24.347656 16.25 -21.765625 C 17.351562 -19.191406 18.851562 -17 20.75 -15.1875 C 22.644531 -13.382812 24.835938 -11.984375 27.328125 -10.984375 C 29.816406 -9.992188 32.476562 -9.5 35.3125 -9.5 C 38.539062 -9.5 41.269531 -9.96875 43.5 -10.90625 C 45.738281 -11.84375 47.648438 -13.046875 49.234375 -14.515625 C 50.367188 -15.535156 51.34375 -16.820312 52.15625 -18.375 C 52.976562 -19.9375 53.617188 -21.675781 54.078125 -23.59375 L 34.96875 -23.59375 Z M 34.96875 -33.359375 "/></g></g></g><g fill="#fbbc05" fill-opacity="1"><g transform="translate(155.295272, 213.53606)"><g><path d="M 24.453125 -42.953125 C 27.671875 -42.953125 30.625 -42.398438 33.3125 -41.296875 C 36.007812 -40.191406 38.332031 -38.660156 40.28125 -36.703125 C 42.226562 -34.753906 43.753906 -32.421875 44.859375 -29.703125 C 45.960938 -26.992188 46.515625 -24.023438 46.515625 -20.796875 C 46.515625 -17.566406 45.960938 -14.59375 44.859375 -11.875 C 43.753906 -9.164062 42.226562 -6.832031 40.28125 -4.875 C 38.332031 -2.925781 36.007812 -1.398438 33.3125 -0.296875 C 30.625 0.804688 27.671875 1.359375 24.453125 1.359375 C 21.222656 1.359375 18.265625 0.804688 15.578125 -0.296875 C 12.890625 -1.398438 10.566406 -2.925781 8.609375 -4.875 C 6.660156 -6.832031 5.132812 -9.164062 4.03125 -11.875 C 2.925781 -14.59375 2.375 -17.566406 2.375 -20.796875 C 2.375 -24.023438 2.925781 -26.992188 4.03125 -29.703125 C 5.132812 -32.421875 6.660156 -34.753906 8.609375 -36.703125 C 10.566406 -38.660156 12.890625 -40.191406 15.578125 -41.296875 C 18.265625 -42.398438 21.222656 -42.953125 24.453125 -42.953125 Z M 24.453125 -8.90625 C 25.867188 -8.90625 27.238281 -9.175781 28.5625 -9.71875 C 29.894531 -10.257812 31.066406 -11.035156 32.078125 -12.046875 C 33.097656 -13.066406 33.90625 -14.3125 34.5 -15.78125 C 35.101562 -17.257812 35.40625 -18.929688 35.40625 -20.796875 C 35.40625 -22.660156 35.101562 -24.328125 34.5 -25.796875 C 33.90625 -27.273438 33.097656 -28.519531 32.078125 -29.53125 C 31.066406 -30.550781 29.894531 -31.332031 28.5625 -31.875 C 27.238281 -32.414062 25.867188 -32.6875 24.453125 -32.6875 C 22.972656 -32.6875 21.582031 -32.414062 20.28125 -31.875 C 18.988281 -31.332031 17.832031 -30.550781 16.8125 -29.53125 C 15.789062 -28.519531 14.984375 -27.273438 14.390625 -25.796875 C 13.796875 -24.328125 13.5 -22.660156 13.5 -20.796875 C 13.5 -18.929688 13.796875 -17.257812 14.390625 -15.78125 C 14.984375 -14.3125 15.789062 -13.066406 16.8125 -12.046875 C 17.832031 -11.035156 18.988281 -10.257812 20.28125 -9.71875 C 21.582031 -9.175781 22.972656 -8.90625 24.453125 -8.90625 Z M 24.453125 -8.90625 "/></g></g></g><g fill="#ea4335" fill-opacity="1"><g transform="translate(104.844381, 213.53606)"><g><path d="M 24.453125 -42.953125 C 27.671875 -42.953125 30.625 -42.398438 33.3125 -41.296875 C 36.007812 -40.191406 38.332031 -38.660156 40.28125 -36.703125 C 42.226562 -34.753906 43.753906 -32.421875 44.859375 -29.703125 C 45.960938 -26.992188 46.515625 -24.023438 46.515625 -20.796875 C 46.515625 -17.566406 45.960938 -14.59375 44.859375 -11.875 C 43.753906 -9.164062 42.226562 -6.832031 40.28125 -4.875 C 38.332031 -2.925781 36.007812 -1.398438 33.3125 -0.296875 C 30.625 0.804688 27.671875 1.359375 24.453125 1.359375 C 21.222656 1.359375 18.265625 0.804688 15.578125 -0.296875 C 12.890625 -1.398438 10.566406 -2.925781 8.609375 -4.875 C 6.660156 -6.832031 5.132812 -9.164062 4.03125 -11.875 C 2.925781 -14.59375 2.375 -17.566406 2.375 -20.796875 C 2.375 -24.023438 2.925781 -26.992188 4.03125 -29.703125 C 5.132812 -32.421875 6.660156 -34.753906 8.609375 -36.703125 C 10.566406 -38.660156 12.890625 -40.191406 15.578125 -41.296875 C 18.265625 -42.398438 21.222656 -42.953125 24.453125 -42.953125 Z M 24.453125 -8.90625 C 25.867188 -8.90625 27.238281 -9.175781 28.5625 -9.71875 C 29.894531 -10.257812 31.066406 -11.035156 32.078125 -12.046875 C 33.097656 -13.066406 33.90625 -14.3125 34.5 -15.78125 C 35.101562 -17.257812 35.40625 -18.929688 35.40625 -20.796875 C 35.40625 -22.660156 35.101562 -24.328125 34.5 -25.796875 C 33.90625 -27.273438 33.097656 -28.519531 32.078125 -29.53125 C 31.066406 -30.550781 29.894531 -31.332031 28.5625 -31.875 C 27.238281 -32.414062 25.867188 -32.6875 24.453125 -32.6875 C 22.972656 -32.6875 21.582031 -32.414062 20.28125 -31.875 C 18.988281 -31.332031 17.832031 -30.550781 16.8125 -29.53125 C 15.789062 -28.519531 14.984375 -27.273438 14.390625 -25.796875 C 13.796875 -24.328125 13.5 -22.660156 13.5 -20.796875 C 13.5 -18.929688 13.796875 -17.257812 14.390625 -15.78125 C 14.984375 -14.3125 15.789062 -13.066406 16.8125 -12.046875 C 17.832031 -11.035156 18.988281 -10.257812 20.28125 -9.71875 C 21.582031 -9.175781 22.972656 -8.90625 24.453125 -8.90625 Z M 24.453125 -8.90625 "/></g></g></g><g fill="#4285f4" fill-opacity="1"><g transform="translate(206.613067, 213.53606)"><g><path d="M 23.9375 19.6875 C 21 19.6875 18.382812 19.304688 16.09375 18.546875 C 13.800781 17.785156 11.804688 16.796875 10.109375 15.578125 C 8.410156 14.359375 6.992188 13.015625 5.859375 11.546875 C 4.722656 10.078125 3.898438 8.601562 3.390625 7.125 L 14 2.890625 C 14.800781 5.097656 16.101562 6.804688 17.90625 8.015625 C 19.71875 9.234375 21.726562 9.84375 23.9375 9.84375 C 27.445312 9.84375 30.21875 8.753906 32.25 6.578125 C 34.289062 4.398438 35.3125 1.359375 35.3125 -2.546875 L 35.3125 -5.4375 L 34.640625 -5.4375 C 33.335938 -3.625 31.625 -2.191406 29.5 -1.140625 C 27.375 -0.0976562 24.867188 0.421875 21.984375 0.421875 C 19.492188 0.421875 17.070312 -0.0820312 14.71875 -1.09375 C 12.375 -2.113281 10.296875 -3.570312 8.484375 -5.46875 C 6.671875 -7.363281 5.195312 -9.640625 4.0625 -12.296875 C 2.9375 -14.960938 2.375 -17.9375 2.375 -21.21875 C 2.375 -24.5 2.9375 -27.484375 4.0625 -30.171875 C 5.195312 -32.859375 6.671875 -35.148438 8.484375 -37.046875 C 10.296875 -38.953125 12.375 -40.410156 14.71875 -41.421875 C 17.070312 -42.441406 19.492188 -42.953125 21.984375 -42.953125 C 24.867188 -42.953125 27.375 -42.425781 29.5 -41.375 C 31.625 -40.332031 33.335938 -38.90625 34.640625 -37.09375 L 35.3125 -37.09375 L 35.3125 -41.59375 L 45.921875 -41.59375 L 45.921875 -2.96875 C 45.921875 0.539062 45.382812 3.695312 44.3125 6.5 C 43.238281 9.300781 41.738281 11.675781 39.8125 13.625 C 37.882812 15.570312 35.578125 17.066406 32.890625 18.109375 C 30.203125 19.160156 27.21875 19.6875 23.9375 19.6875 Z M 24.359375 -9.59375 C 25.722656 -9.59375 27.066406 -9.847656 28.390625 -10.359375 C 29.722656 -10.867188 30.898438 -11.617188 31.921875 -12.609375 C 32.941406 -13.597656 33.757812 -14.8125 34.375 -16.25 C 35 -17.695312 35.3125 -19.351562 35.3125 -21.21875 C 35.3125 -23.09375 35 -24.765625 34.375 -26.234375 C 33.757812 -27.703125 32.941406 -28.929688 31.921875 -29.921875 C 30.898438 -30.910156 29.722656 -31.660156 28.390625 -32.171875 C 27.066406 -32.679688 25.722656 -32.9375 24.359375 -32.9375 C 23.003906 -32.9375 21.675781 -32.679688 20.375 -32.171875 C 19.070312 -31.660156 17.910156 -30.894531 16.890625 -29.875 C 15.867188 -28.863281 15.046875 -27.632812 14.421875 -26.1875 C 13.804688 -24.75 13.5 -23.09375 13.5 -21.21875 C 13.5 -19.351562 13.804688 -17.695312 14.421875 -16.25 C 15.046875 -14.8125 15.867188 -13.597656 16.890625 -12.609375 C 17.910156 -11.617188 19.070312 -10.867188 20.375 -10.359375 C 21.675781 -9.847656 23.003906 -9.59375 24.359375 -9.59375 Z M 24.359375 -9.59375 "/></g></g></g><g fill="#34a853" fill-opacity="1"><g transform="translate(259.236932, 213.53606)"><g><path d="M 4.75 0 L 4.75 -60.78125 L 15.875 -60.78125 L 15.875 0 Z M 4.75 0 "/></g></g></g><g fill="#ea4335" fill-opacity="1"><g transform="translate(282.798325, 213.53606)"><g><path d="M 44.140625 -10.015625 C 42.210938 -6.617188 39.625 -3.875 36.375 -1.78125 C 33.125 0.3125 29.148438 1.359375 24.453125 1.359375 C 21.273438 1.359375 18.34375 0.804688 15.65625 -0.296875 C 12.96875 -1.398438 10.632812 -2.941406 8.65625 -4.921875 C 6.675781 -6.898438 5.132812 -9.234375 4.03125 -11.921875 C 2.925781 -14.609375 2.375 -17.566406 2.375 -20.796875 C 2.375 -23.796875 2.910156 -26.640625 3.984375 -29.328125 C 5.066406 -32.015625 6.566406 -34.363281 8.484375 -36.375 C 10.410156 -38.382812 12.6875 -39.984375 15.3125 -41.171875 C 17.945312 -42.359375 20.851562 -42.953125 24.03125 -42.953125 C 27.363281 -42.953125 30.332031 -42.398438 32.9375 -41.296875 C 35.539062 -40.191406 37.71875 -38.660156 39.46875 -36.703125 C 41.226562 -34.753906 42.5625 -32.453125 43.46875 -29.796875 C 44.375 -27.140625 44.828125 -24.253906 44.828125 -21.140625 C 44.828125 -20.742188 44.828125 -20.40625 44.828125 -20.125 C 44.765625 -19.78125 44.734375 -19.46875 44.734375 -19.1875 C 44.679688 -18.90625 44.65625 -18.59375 44.65625 -18.25 L 13.328125 -18.25 C 13.554688 -16.550781 14.023438 -15.09375 14.734375 -13.875 C 15.441406 -12.65625 16.316406 -11.632812 17.359375 -10.8125 C 18.410156 -10 19.554688 -9.40625 20.796875 -9.03125 C 22.046875 -8.664062 23.320312 -8.484375 24.625 -8.484375 C 27.164062 -8.484375 29.269531 -9.0625 30.9375 -10.21875 C 32.613281 -11.382812 33.929688 -12.84375 34.890625 -14.59375 Z M 34.046875 -26.140625 C 33.984375 -26.878906 33.738281 -27.703125 33.3125 -28.609375 C 32.894531 -29.515625 32.273438 -30.363281 31.453125 -31.15625 C 30.628906 -31.945312 29.609375 -32.597656 28.390625 -33.109375 C 27.179688 -33.617188 25.726562 -33.875 24.03125 -33.875 C 21.644531 -33.875 19.546875 -33.191406 17.734375 -31.828125 C 15.929688 -30.472656 14.660156 -28.578125 13.921875 -26.140625 Z M 34.046875 -26.140625 "/></g></g></g></svg>